/* XPM */
static char * title_5_inactive_xpm[] = {
"1 3 3 1",
" 	c None",
".	c #11111b",
"+	c #11111b",
".",
"+",
"+"};
