/* XPM */
static char * top_right_inactive_xpm[] = {
"2 4 3 1",
" 	c None",
".	c #11111b",
"+	c #11111b",
"..",
"+.",
"+.",
"+."};
